<svg xmlns="http://www.w3.org/2000/svg" width="134" height="134" viewBox="0 0 134 134">
  <g fill="none" fill-rule="evenodd">
    <rect width="134" height="134" fill="#333D45" rx="16"/>
    <g fill-rule="nonzero">
      <path fill="#30B5FF" d="M98.3419746,57.5654707 L68.9407698,14.6432657 C68.6047133,14.1541322 68.0506284,13.862069 67.45873,13.862069 C66.8668316,13.862069 66.3127466,14.1541322 65.9766902,14.6432657 L36.5754853,57.5654707 C31.4100246,64.3318514 28.6225337,72.6252064 28.648455,81.150006 C28.6392626,98.1405549 39.5982182,113.178159 55.73179,118.313079 C71.8653618,123.447999 89.4533112,117.496174 99.1976402,103.60408 C108.941969,89.7119866 108.595734,71.0830001 98.3419746,57.5654707 Z M67.4553073,111.097968 C50.9897825,111.075248 37.6485385,97.6792802 37.6296845,81.150006 C37.6128781,74.5657722 39.78053,68.1633678 43.7905889,62.9530802 L43.8590434,62.8637448 L67.4553073,28.3940394 L91.0036529,62.7537936 L91.1405619,62.9393363 C95.1478317,68.1511268 97.315149,74.5525429 97.3014663,81.1362621 C97.2901393,97.678943 83.9341917,111.086597 67.4553073,111.097968 Z"/>
      <circle cx="78.09" cy="70.697" r="5.083" fill="#30B5FF"/>
      <path fill="#FFFFFF" d="M53.2865314,66.537931 C52.4415613,66.5379227 51.7555132,67.2100943 51.7517241,68.0416943 L51.7517241,74.0025575 C51.7517241,74.836804 52.4388808,75.5130944 53.2865314,75.5130944 L61.5042887,75.5130944 L61.5042887,97.1889608 C61.4930519,97.6383734 61.6667941,98.0731886 61.9860668,98.3946809 C62.306508,98.7155098 62.7472725,98.8919686 63.2042771,98.8823879 L68.8823757,98.8823879 C69.3393803,98.8919686 69.7801449,98.7155098 70.100586,98.3946809 C70.4210447,98.0734504 70.5970914,97.639073 70.5892466,97.1889608 L70.5892466,70.6292508 C70.5200566,69.1332327 71.0572514,67.6713893 72.0827586,66.5650259 L53.2865314,66.537931 Z"/>
    </g>
  </g>
</svg>
