<?xml version="1.0" encoding="UTF-8"?>
<svg version="1.1" xmlns="http://www.w3.org/2000/svg" xmlns:xlink="http://www.w3.org/1999/xlink">
    <symbol id="icon" viewBox="0 0 145 145">
        <g fill="var(--icon-fill, currentColor)" fill-rule="nonzero">
            <path d="M106.415 62.291L74.6 15.845a1.946 1.946 0 0 0-3.207 0L39.578 62.291A41.851 41.851 0 0 0 31 87.811c-.01 18.386 11.849 34.658 29.307 40.214 17.458 5.557 36.49-.884 47.034-15.916 10.544-15.033 10.17-35.19-.926-49.818zm-33.422 57.927c-17.817-.025-32.254-14.52-32.274-32.406a32.152 32.152 0 0 1 6.666-19.691l.074-.097 25.534-37.3 25.481 37.181.148.201a32.197 32.197 0 0 1 6.667 19.69c-.012 17.901-14.465 32.41-32.296 32.422z"/>
            <circle fill="var(--blue-1, hsl(205, 100%, 60%))" cx="84.5" cy="76.5" r="5.5"/>
            <path d="M57.66 72c-.914 0-1.656.727-1.66 1.627v6.45c0 .903.744 1.635 1.66 1.635h8.893v23.455c-.012.486.176.957.521 1.305a1.81 1.81 0 0 0 1.319.528h6.144a1.803 1.803 0 0 0 1.847-1.832v-28.74A6.056 6.056 0 0 1 78 72.028L57.66 72z"/>
        </g>
    </symbol>

    <symbol id="radio" viewBox="0 0 20 20">
        <path fill="currentColor" d="M10 20c-2.671 0-5.182-1.040-7.071-2.929s-2.929-4.4-2.929-7.071c0-2.671 1.040-5.182 2.929-7.071s4.4-2.929 7.071-2.929c2.671 0 5.182 1.040 7.071 2.929s2.929 4.4 2.929 7.071c0 2.671-1.040 5.182-2.929 7.071s-4.4 2.929-7.071 2.929zM10 1c-4.963 0-9 4.037-9 9s4.037 9 9 9c4.963 0 9-4.037 9-9s-4.037-9-9-9z"></path>
    </symbol>

    <symbol id="radio_checked" viewBox="0 0 20 20">
        <path fill="currentColor" d="M10 20c-2.671 0-5.182-1.040-7.071-2.929s-2.929-4.4-2.929-7.071c0-2.671 1.040-5.182 2.929-7.071s4.4-2.929 7.071-2.929c2.671 0 5.182 1.040 7.071 2.929s2.929 4.4 2.929 7.071c0 2.671-1.040 5.182-2.929 7.071s-4.4 2.929-7.071 2.929zM10 1c-4.963 0-9 4.037-9 9s4.037 9 9 9 9-4.037 9-9-4.037-9-9-9z"></path>
        <path fill="currentColor" d="M10 16c-3.308 0-6-2.692-6-6s2.692-6 6-6 6 2.692 6 6-2.692 6-6 6zM10 5c-2.757 0-5 2.243-5 5s2.243 5 5 5c2.757 0 5-2.243 5-5s-2.243-5-5-5z"></path>
    </symbol>

    <symbol id="logo" viewBox="0 0 320 100">
        <g transform="translate(18 18)" fill="none" fill-rule="evenodd">
            <path fill="var(--icon-fill, currentColor)" d="M75.86 18.2a18.07 18.07 0 0 1 7.48 5.54 12.45 12.45 0 0 1 2.73 7.81v29.92a1.58 1.58 0 0 1-.44 1.17 1.54 1.54 0 0 1-1.14.44H73a1.54 1.54 0 0 1-1.14-.44 1.58 1.58 0 0 1-.44-1.17v-1.78c0-.3-.08-.48-.22-.54-.14-.06-.31 0-.49.27-2.313 2.92-6.083 4.38-11.31 4.38-4.667 0-8.367-1.117-11.1-3.35-2.733-2.233-4.113-5.523-4.14-9.87 0-4.587 1.57-8.13 4.71-10.63 3.14-2.5 7.677-3.75 13.61-3.75h8.36a.55.55 0 0 0 .62-.63v-1.52a4.85 4.85 0 0 0-1.54-3.79 6.27 6.27 0 0 0-4.36-1.39 8.37 8.37 0 0 0-3.48.67A4.27 4.27 0 0 0 60 31.37a4.47 4.47 0 0 1-.83.94 1.29 1.29 0 0 1-1 .22L46.37 31c-1.06-.12-1.53-.54-1.41-1.25a12.4 12.4 0 0 1 3.17-6.93A18.86 18.86 0 0 1 55.3 18a26.67 26.67 0 0 1 10-1.78 26.86 26.86 0 0 1 10.56 1.98zM69.3 51.43a5.64 5.64 0 0 0 2.16-4.6v-2a.55.55 0 0 0-.62-.62h-5.1a9.51 9.51 0 0 0-5.16 1.16 3.86 3.86 0 0 0-1.8 3.48A4 4 0 0 0 60.1 52a5.43 5.43 0 0 0 3.7 1.16 8.48 8.48 0 0 0 5.5-1.73zM129.35 20.61c2.9 2.947 4.35 6.947 4.35 12v28.86a1.58 1.58 0 0 1-.44 1.17 1.54 1.54 0 0 1-1.14.44h-11.45a1.54 1.54 0 0 1-1.14-.44 1.62 1.62 0 0 1-.44-1.17V35.84a7.53 7.53 0 0 0-1.63-5.05 5.43 5.43 0 0 0-4.36-1.92 5.54 5.54 0 0 0-4.4 1.92 7.4 7.4 0 0 0-1.7 5.05v25.63a1.62 1.62 0 0 1-.44 1.17 1.58 1.58 0 0 1-1.15.44H94a1.58 1.58 0 0 1-1.15-.44 1.62 1.62 0 0 1-.44-1.17v-43a1.59 1.59 0 0 1 .44-1.16A1.55 1.55 0 0 1 94 16.9h11.44a1.55 1.55 0 0 1 1.15.45c.298.311.456.73.44 1.16V21c0 .3.07.48.22.54.15.06.27 0 .39-.27 2.407-3.393 5.9-5.09 10.48-5.09a15.08 15.08 0 0 1 11.23 4.43zM140.39 62.64a1.62 1.62 0 0 1-.44-1.17V2.16a1.61 1.61 0 0 1 .44-1.16 1.58 1.58 0 0 1 1.15-.44H153a1.57 1.57 0 0 1 1.15.44c.296.312.454.73.44 1.16v26.89c0 .3.09.48.26.54.17.06.36 0 .53-.27l9.16-11.43a2.24 2.24 0 0 1 1.94-1h13c.88 0 1.32.333 1.32 1a1.54 1.54 0 0 1-.36 1l-10.9 14.27c-.24.36-.27.66-.09.89l12.85 27.16.18.71c0 .78-.47 1.16-1.41 1.16h-11.88a1.85 1.85 0 0 1-1.85-1.25l-7.75-18.4c-.06-.24-.19-.36-.4-.36a.54.54 0 0 0-.48.27l-3.88 5.72a1.11 1.11 0 0 0-.26.8v11.61a1.62 1.62 0 0 1-.44 1.17 1.57 1.57 0 0 1-1.15.44h-11.44a1.58 1.58 0 0 1-1.15-.44zM215.76 17.26c.298.311.456.73.44 1.16v8.93c.018.43-.141.85-.44 1.16a1.54 1.54 0 0 1-1.15.45H207c-.41 0-.61.21-.61.63v31.88a1.62 1.62 0 0 1-.44 1.17 1.58 1.58 0 0 1-1.15.44h-11.4a1.57 1.57 0 0 1-1.15-.44 1.62 1.62 0 0 1-.44-1.17V29.59a.55.55 0 0 0-.61-.63H187a1.55 1.55 0 0 1-1.15-.45 1.58 1.58 0 0 1-.44-1.16v-8.93a1.59 1.59 0 0 1 .44-1.16 1.55 1.55 0 0 1 1.15-.45h4.23a.54.54 0 0 0 .61-.62V14c0-3.52.62-6.27 1.85-8.27a10 10 0 0 1 5.9-4.2 35.36 35.36 0 0 1 11-.93h3.08a1.54 1.54 0 0 1 1.14.44c.296.312.454.73.44 1.16v7.02a1.59 1.59 0 0 1-.44 1.16 1.51 1.51 0 0 1-1.14.45h-2.91A5.19 5.19 0 0 0 207.4 12a4.61 4.61 0 0 0-1 3.31v.89a.54.54 0 0 0 .61.62h7.57a1.54 1.54 0 0 1 1.18.44zM248 17.35a1.55 1.55 0 0 1 1.15-.45h11.44a1.55 1.55 0 0 1 1.15.45c.298.311.456.73.44 1.16v43a1.62 1.62 0 0 1-.44 1.17 1.58 1.58 0 0 1-1.15.44h-11.46a1.58 1.58 0 0 1-1.15-.44 1.62 1.62 0 0 1-.44-1.17v-2.27c0-.3-.07-.48-.22-.54-.15-.06-.31 0-.48.27-2.473 3.22-6.113 4.83-10.92 4.83a14.37 14.37 0 0 1-10.83-4.29c-2.76-2.86-4.14-6.86-4.14-12v-29a1.59 1.59 0 0 1 .44-1.16 1.55 1.55 0 0 1 1.15-.45H234a1.55 1.55 0 0 1 1.15.45c.298.311.456.73.44 1.16v25.64a7.53 7.53 0 0 0 1.58 5 5.36 5.36 0 0 0 4.3 1.85 5.72 5.72 0 0 0 4.09-1.52 6.49 6.49 0 0 0 2-4v-27a1.59 1.59 0 0 1 .44-1.13zM269.29 62.64a1.58 1.58 0 0 1-.44-1.17V2.16c-.019-.43.14-.85.44-1.16a1.54 1.54 0 0 1 1.14-.44h11.45A1.54 1.54 0 0 1 283 1c.3.31.459.73.44 1.16v59.31a1.58 1.58 0 0 1-.44 1.17 1.54 1.54 0 0 1-1.14.44h-11.43a1.54 1.54 0 0 1-1.14-.44z"/>
            <circle fill="var(--blue-1, hsl(205, 100%, 60%))" fill-rule="nonzero" cx="45.22" cy="8.04" r="8.04"/>
            <path fill="var(--icon-fill, currentColor)" d="M18.81.55H1.24A1.23 1.23 0 0 0 0 1.79V14a1.23 1.23 0 0 0 1.24 1.23h17.55v46.24a1.62 1.62 0 0 0 .44 1.17 1.58 1.58 0 0 0 1.15.44h11.44a1.58 1.58 0 0 0 1.18-.44 1.62 1.62 0 0 0 .44-1.17V8A12.48 12.48 0 0 1 35.87.55H18.81z"/>
        </g>
    </symbol>

    <symbol id="arrow-right" viewBox="0 0 20 20">
        <path fill="var(--icon-fill, currentColor)" d="M19.354 10.146l-6-6c-0.195-0.195-0.512-0.195-0.707 0s-0.195 0.512 0 0.707l5.146 5.146h-16.293c-0.276 0-0.5 0.224-0.5 0.5s0.224 0.5 0.5 0.5h16.293l-5.146 5.146c-0.195 0.195-0.195 0.512 0 0.707 0.098 0.098 0.226 0.146 0.354 0.146s0.256-0.049 0.354-0.146l6-6c0.195-0.195 0.195-0.512 0-0.707z"></path>
    </symbol>

    <symbol id="arrow-down" viewBox="0 0 30 30">
        <path fill="var(--icon-fill, currentColor)" d="M0,6c0,-0.128 0.049,-0.256 0.146,-0.354c0.195,-0.195 0.512,-0.195 0.707,0l8.646,8.646l8.646,-8.646c0.195,-0.195 0.512,-0.195 0.707,0c0.195,0.195 0.195,0.512 0,0.707l-9,9c-0.195,0.195 -0.512,0.195 -0.707,0l-9,-9c-0.098,-0.098 -0.146,-0.226 -0.146,-0.354Z" transform="scale(1.5)"></path>
    </symbol>

    <svg id="battery-alert" viewBox="0 0 20 20">
        <path fill="var(--battery, white)" d="M17.5 8h-0.5v-1.5c0-0.827-0.673-1.5-1.5-1.5h-14c-0.827 0-1.5 0.673-1.5 1.5v8c0 0.827 0.673 1.5 1.5 1.5h14c0.827 0 1.5-0.673 1.5-1.5v-1.5h0.5c0.827 0 1.5-0.673 1.5-1.5v-2c0-0.827-0.673-1.5-1.5-1.5zM16 14.5c0 0.276-0.224 0.5-0.5 0.5h-14c-0.276 0-0.5-0.224-0.5-0.5v-8c0-0.276 0.224-0.5 0.5-0.5h14c0.276 0 0.5 0.224 0.5 0.5v8zM18 11.5c0 0.276-0.224 0.5-0.5 0.5h-0.5v-3h0.5c0.276 0 0.5 0.224 0.5 0.5v2z"></path>
        <path fill="var(--battery-bars, var(--red-1, red))" d="M8.5 12c-0.276 0-0.5-0.224-0.5-0.5v-4c0-0.276 0.224-0.5 0.5-0.5s0.5 0.224 0.5 0.5v4c0 0.276-0.224 0.5-0.5 0.5z"></path>
        <path fill="var(--battery-bars, var(--red-1, red))" d="M8.5 14c-0.132 0-0.26-0.053-0.353-0.147s-0.147-0.222-0.147-0.353c0-0.132 0.053-0.261 0.147-0.353s0.222-0.147 0.353-0.147 0.261 0.053 0.353 0.147c0.093 0.093 0.147 0.222 0.147 0.353s-0.053 0.261-0.147 0.353c-0.093 0.093-0.222 0.147-0.353 0.147z"></path>
    </svg>

    <symbol id="battery-0" viewBox="0 0 20 20">
        <path fill="var(--battery, white)" d="M17.5 8h-0.5v-1.5c0-0.827-0.673-1.5-1.5-1.5h-14c-0.827 0-1.5 0.673-1.5 1.5v8c0 0.827 0.673 1.5 1.5 1.5h14c0.827 0 1.5-0.673 1.5-1.5v-1.5h0.5c0.827 0 1.5-0.673 1.5-1.5v-2c0-0.827-0.673-1.5-1.5-1.5zM16 14.5c0 0.276-0.224 0.5-0.5 0.5h-14c-0.276 0-0.5-0.224-0.5-0.5v-8c0-0.276 0.224-0.5 0.5-0.5h14c0.276 0 0.5 0.224 0.5 0.5v8zM18 11.5c0 0.276-0.224 0.5-0.5 0.5h-0.5v-3h0.5c0.276 0 0.5 0.224 0.5 0.5v2z"></path>
        <path fill="var(--battery-bars, var(--green-2, green))" d="M2.5 14c-0.276 0-0.5-0.224-0.5-0.5v-6c0-0.276 0.224-0.5 0.5-0.5s0.5 0.224 0.5 0.5v6c0 0.276-0.224 0.5-0.5 0.5z"></path>
        <path fill="var(--battery-bars, var(--green-2, green))" d="M4.5 14c-0.276 0-0.5-0.224-0.5-0.5v-6c0-0.276 0.224-0.5 0.5-0.5s0.5 0.224 0.5 0.5v6c0 0.276-0.224 0.5-0.5 0.5z"></path>
        <path fill="var(--battery-bars, var(--green-2, green))" d="M6.5 14c-0.276 0-0.5-0.224-0.5-0.5v-6c0-0.276 0.224-0.5 0.5-0.5s0.5 0.224 0.5 0.5v6c0 0.276-0.224 0.5-0.5 0.5z"></path>
    </symbol>

    <symbol id="battery-1" viewBox="0 0 20 20">
        <path fill="var(--battery, white)" d="M17.5 8h-0.5v-1.5c0-0.827-0.673-1.5-1.5-1.5h-14c-0.827 0-1.5 0.673-1.5 1.5v8c0 0.827 0.673 1.5 1.5 1.5h14c0.827 0 1.5-0.673 1.5-1.5v-1.5h0.5c0.827 0 1.5-0.673 1.5-1.5v-2c0-0.827-0.673-1.5-1.5-1.5zM16 14.5c0 0.276-0.224 0.5-0.5 0.5h-14c-0.276 0-0.5-0.224-0.5-0.5v-8c0-0.276 0.224-0.5 0.5-0.5h14c0.276 0 0.5 0.224 0.5 0.5v8zM18 11.5c0 0.276-0.224 0.5-0.5 0.5h-0.5v-3h0.5c0.276 0 0.5 0.224 0.5 0.5v2z"></path>
    </symbol>

    <symbol id="battery-2" viewBox="0 0 20 20">
        <path fill="var(--battery, white)" d="M17.5 8h-0.5v-1.5c0-0.827-0.673-1.5-1.5-1.5h-14c-0.827 0-1.5 0.673-1.5 1.5v8c0 0.827 0.673 1.5 1.5 1.5h14c0.827 0 1.5-0.673 1.5-1.5v-1.5h0.5c0.827 0 1.5-0.673 1.5-1.5v-2c0-0.827-0.673-1.5-1.5-1.5zM16 14.5c0 0.276-0.224 0.5-0.5 0.5h-14c-0.276 0-0.5-0.224-0.5-0.5v-8c0-0.276 0.224-0.5 0.5-0.5h14c0.276 0 0.5 0.224 0.5 0.5v8zM18 11.5c0 0.276-0.224 0.5-0.5 0.5h-0.5v-3h0.5c0.276 0 0.5 0.224 0.5 0.5v2z"></path>
        <path fill="var(--battery-bars, var(--green-2, green))" d="M2.5 14c-0.276 0-0.5-0.224-0.5-0.5v-6c0-0.276 0.224-0.5 0.5-0.5s0.5 0.224 0.5 0.5v6c0 0.276-0.224 0.5-0.5 0.5z"></path>
        <path fill="var(--battery-bars, var(--green-2, green))" d="M4.5 14c-0.276 0-0.5-0.224-0.5-0.5v-6c0-0.276 0.224-0.5 0.5-0.5s0.5 0.224 0.5 0.5v6c0 0.276-0.224 0.5-0.5 0.5z"></path>
        <path fill="var(--battery-bars, var(--green-2, green))" d="M6.5 14c-0.276 0-0.5-0.224-0.5-0.5v-6c0-0.276 0.224-0.5 0.5-0.5s0.5 0.224 0.5 0.5v6c0 0.276-0.224 0.5-0.5 0.5z"></path>
        <path fill="var(--battery-bars, var(--green-2, green))" d="M8.5 14c-0.276 0-0.5-0.224-0.5-0.5v-6c0-0.276 0.224-0.5 0.5-0.5s0.5 0.224 0.5 0.5v6c0 0.276-0.224 0.5-0.5 0.5z"></path>
        <path fill="var(--battery-bars, var(--green-2, green))" d="M10.5 14c-0.276 0-0.5-0.224-0.5-0.5v-6c0-0.276 0.224-0.5 0.5-0.5s0.5 0.224 0.5 0.5v6c0 0.276-0.224 0.5-0.5 0.5z"></path>
        <path fill="var(--battery-bars, var(--green-2, green))" d="M12.5 14c-0.276 0-0.5-0.224-0.5-0.5v-6c0-0.276 0.224-0.5 0.5-0.5s0.5 0.224 0.5 0.5v6c0 0.276-0.224 0.5-0.5 0.5z"></path>
    </symbol>

    <symbol id="battery-3" viewBox="0 0 20 20">
        <path fill="var(--battery, white)" d="M17.5 8h-0.5v-1.5c0-0.827-0.673-1.5-1.5-1.5h-14c-0.827 0-1.5 0.673-1.5 1.5v8c0 0.827 0.673 1.5 1.5 1.5h14c0.827 0 1.5-0.673 1.5-1.5v-1.5h0.5c0.827 0 1.5-0.673 1.5-1.5v-2c0-0.827-0.673-1.5-1.5-1.5zM16 14.5c0 0.276-0.224 0.5-0.5 0.5h-14c-0.276 0-0.5-0.224-0.5-0.5v-8c0-0.276 0.224-0.5 0.5-0.5h14c0.276 0 0.5 0.224 0.5 0.5v8zM18 11.5c0 0.276-0.224 0.5-0.5 0.5h-0.5v-3h0.5c0.276 0 0.5 0.224 0.5 0.5v2z"></path>
        <path fill="var(--battery-bars, var(--green-2, green))" d="M2.5 14c-0.276 0-0.5-0.224-0.5-0.5v-6c0-0.276 0.224-0.5 0.5-0.5s0.5 0.224 0.5 0.5v6c0 0.276-0.224 0.5-0.5 0.5z"></path>
    </symbol>

    <symbol id="battery-4" viewBox="0 0 20 20">
        <path fill="var(--battery, white)" d="M17.5 8h-0.5v-1.5c0-0.827-0.673-1.5-1.5-1.5h-14c-0.827 0-1.5 0.673-1.5 1.5v8c0 0.827 0.673 1.5 1.5 1.5h14c0.827 0 1.5-0.673 1.5-1.5v-1.5h0.5c0.827 0 1.5-0.673 1.5-1.5v-2c0-0.827-0.673-1.5-1.5-1.5zM16 14.5c0 0.276-0.224 0.5-0.5 0.5h-14c-0.276 0-0.5-0.224-0.5-0.5v-8c0-0.276 0.224-0.5 0.5-0.5h14c0.276 0 0.5 0.224 0.5 0.5v8zM18 11.5c0 0.276-0.224 0.5-0.5 0.5h-0.5v-3h0.5c0.276 0 0.5 0.224 0.5 0.5v2z"></path>
        <path fill="var(--battery-bars, var(--green-2, green))" d="M2.5 14c-0.276 0-0.5-0.224-0.5-0.5v-6c0-0.276 0.224-0.5 0.5-0.5s0.5 0.224 0.5 0.5v6c0 0.276-0.224 0.5-0.5 0.5z"></path>
        <path fill="var(--battery-bars, var(--green-2, green))" d="M4.5 14c-0.276 0-0.5-0.224-0.5-0.5v-6c0-0.276 0.224-0.5 0.5-0.5s0.5 0.224 0.5 0.5v6c0 0.276-0.224 0.5-0.5 0.5z"></path>
        <path fill="var(--battery-bars, var(--green-2, green))" d="M6.5 14c-0.276 0-0.5-0.224-0.5-0.5v-6c0-0.276 0.224-0.5 0.5-0.5s0.5 0.224 0.5 0.5v6c0 0.276-0.224 0.5-0.5 0.5z"></path>
        <path fill="var(--battery-bars, var(--green-2, green))" d="M8.5 14c-0.276 0-0.5-0.224-0.5-0.5v-6c0-0.276 0.224-0.5 0.5-0.5s0.5 0.224 0.5 0.5v6c0 0.276-0.224 0.5-0.5 0.5z"></path>
    </symbol>

    <symbol id="battery-5" viewBox="0 0 20 20">
        <path fill="var(--battery, white)" d="M17.5 8h-0.5v-1.5c0-0.827-0.673-1.5-1.5-1.5h-14c-0.827 0-1.5 0.673-1.5 1.5v8c0 0.827 0.673 1.5 1.5 1.5h14c0.827 0 1.5-0.673 1.5-1.5v-1.5h0.5c0.827 0 1.5-0.673 1.5-1.5v-2c0-0.827-0.673-1.5-1.5-1.5zM16 14.5c0 0.276-0.224 0.5-0.5 0.5h-14c-0.276 0-0.5-0.224-0.5-0.5v-8c0-0.276 0.224-0.5 0.5-0.5h14c0.276 0 0.5 0.224 0.5 0.5v8zM18 11.5c0 0.276-0.224 0.5-0.5 0.5h-0.5v-3h0.5c0.276 0 0.5 0.224 0.5 0.5v2z"></path>
        <path fill="var(--battery-bars, var(--green-2, green))" d="M8.5 12c-0.276 0-0.5-0.224-0.5-0.5v-4c0-0.276 0.224-0.5 0.5-0.5s0.5 0.224 0.5 0.5v4c0 0.276-0.224 0.5-0.5 0.5z"></path>
        <path fill="var(--battery-bars, var(--green-2, green))" d="M8.5 14c-0.132 0-0.26-0.053-0.353-0.147s-0.147-0.222-0.147-0.353c0-0.132 0.053-0.261 0.147-0.353s0.222-0.147 0.353-0.147 0.261 0.053 0.353 0.147c0.093 0.093 0.147 0.222 0.147 0.353s-0.053 0.261-0.147 0.353c-0.093 0.093-0.222 0.147-0.353 0.147z"></path>
    </symbol>

    <symbol id="battery-6" viewBox="0 0 20 20">
        <path fill="var(--battery, white)" d="M17.5 8h-0.5v-1.5c0-0.827-0.673-1.5-1.5-1.5h-14c-0.827 0-1.5 0.673-1.5 1.5v8c0 0.827 0.673 1.5 1.5 1.5h14c0.827 0 1.5-0.673 1.5-1.5v-1.5h0.5c0.827 0 1.5-0.673 1.5-1.5v-2c0-0.827-0.673-1.5-1.5-1.5zM16 14.5c0 0.276-0.224 0.5-0.5 0.5h-14c-0.276 0-0.5-0.224-0.5-0.5v-8c0-0.276 0.224-0.5 0.5-0.5h14c0.276 0 0.5 0.224 0.5 0.5v8zM18 11.5c0 0.276-0.224 0.5-0.5 0.5h-0.5v-3h0.5c0.276 0 0.5 0.224 0.5 0.5v2z"></path>
        <path fill="var(--battery-bars, var(--green-2, green))" d="M2.5 14c-0.276 0-0.5-0.224-0.5-0.5v-6c0-0.276 0.224-0.5 0.5-0.5s0.5 0.224 0.5 0.5v6c0 0.276-0.224 0.5-0.5 0.5z"></path>
        <path fill="var(--battery-bars, var(--green-2, green))" d="M4.5 14c-0.276 0-0.5-0.224-0.5-0.5v-6c0-0.276 0.224-0.5 0.5-0.5s0.5 0.224 0.5 0.5v6c0 0.276-0.224 0.5-0.5 0.5z"></path>
        <path fill="var(--battery-bars, var(--green-2, green))" d="M6.5 14c-0.276 0-0.5-0.224-0.5-0.5v-6c0-0.276 0.224-0.5 0.5-0.5s0.5 0.224 0.5 0.5v6c0 0.276-0.224 0.5-0.5 0.5z"></path>
        <path fill="var(--battery-bars, var(--green-2, green))" d="M8.5 14c-0.276 0-0.5-0.224-0.5-0.5v-6c0-0.276 0.224-0.5 0.5-0.5s0.5 0.224 0.5 0.5v6c0 0.276-0.224 0.5-0.5 0.5z"></path>
        <path fill="var(--battery-bars, var(--green-2, green))" d="M10.5 14c-0.276 0-0.5-0.224-0.5-0.5v-6c0-0.276 0.224-0.5 0.5-0.5s0.5 0.224 0.5 0.5v6c0 0.276-0.224 0.5-0.5 0.5z"></path>
        <path fill="var(--battery-bars, var(--green-2, green))" d="M12.5 14c-0.276 0-0.5-0.224-0.5-0.5v-6c0-0.276 0.224-0.5 0.5-0.5s0.5 0.224 0.5 0.5v6c0 0.276-0.224 0.5-0.5 0.5z"></path>
        <path fill="var(--battery-bars, var(--green-2, green))" d="M14.5 14c-0.276 0-0.5-0.224-0.5-0.5v-6c0-0.276 0.224-0.5 0.5-0.5s0.5 0.224 0.5 0.5v6c0 0.276-0.224 0.5-0.5 0.5z"></path>
    </symbol>

    <symbol id="battery-7" viewBox="0 0 20 20">
        <path fill="var(--battery, white)" d="M17.5 8h-0.5v-1.5c0-0.827-0.673-1.5-1.5-1.5h-14c-0.827 0-1.5 0.673-1.5 1.5v8c0 0.827 0.673 1.5 1.5 1.5h14c0.827 0 1.5-0.673 1.5-1.5v-1.5h0.5c0.827 0 1.5-0.673 1.5-1.5v-2c0-0.827-0.673-1.5-1.5-1.5zM16 14.5c0 0.276-0.224 0.5-0.5 0.5h-14c-0.276 0-0.5-0.224-0.5-0.5v-8c0-0.276 0.224-0.5 0.5-0.5h14c0.276 0 0.5 0.224 0.5 0.5v8zM18 11.5c0 0.276-0.224 0.5-0.5 0.5h-0.5v-3h0.5c0.276 0 0.5 0.224 0.5 0.5v2z"></path>
        <path fill="var(--battery-bars, var(--green-2, green))" d="M2.5 14c-0.276 0-0.5-0.224-0.5-0.5v-6c0-0.276 0.224-0.5 0.5-0.5s0.5 0.224 0.5 0.5v6c0 0.276-0.224 0.5-0.5 0.5z"></path>
        <path fill="var(--battery-bars, var(--green-2, green))" d="M4.5 14c-0.276 0-0.5-0.224-0.5-0.5v-6c0-0.276 0.224-0.5 0.5-0.5s0.5 0.224 0.5 0.5v6c0 0.276-0.224 0.5-0.5 0.5z"></path>
    </symbol>

    <symbol id="battery-8" viewBox="0 0 20 20">
        <path fill="var(--battery, white)" d="M17.5 8h-0.5v-1.5c0-0.827-0.673-1.5-1.5-1.5h-14c-0.827 0-1.5 0.673-1.5 1.5v8c0 0.827 0.673 1.5 1.5 1.5h14c0.827 0 1.5-0.673 1.5-1.5v-1.5h0.5c0.827 0 1.5-0.673 1.5-1.5v-2c0-0.827-0.673-1.5-1.5-1.5zM16 14.5c0 0.276-0.224 0.5-0.5 0.5h-14c-0.276 0-0.5-0.224-0.5-0.5v-8c0-0.276 0.224-0.5 0.5-0.5h14c0.276 0 0.5 0.224 0.5 0.5v8zM18 11.5c0 0.276-0.224 0.5-0.5 0.5h-0.5v-3h0.5c0.276 0 0.5 0.224 0.5 0.5v2z"></path>
        <path fill="var(--battery-bars, var(--green-2, green))" d="M2.5 14c-0.276 0-0.5-0.224-0.5-0.5v-6c0-0.276 0.224-0.5 0.5-0.5s0.5 0.224 0.5 0.5v6c0 0.276-0.224 0.5-0.5 0.5z"></path>
        <path fill="var(--battery-bars, var(--green-2, green))" d="M4.5 14c-0.276 0-0.5-0.224-0.5-0.5v-6c0-0.276 0.224-0.5 0.5-0.5s0.5 0.224 0.5 0.5v6c0 0.276-0.224 0.5-0.5 0.5z"></path>
        <path fill="var(--battery-bars, var(--green-2, green))" d="M6.5 14c-0.276 0-0.5-0.224-0.5-0.5v-6c0-0.276 0.224-0.5 0.5-0.5s0.5 0.224 0.5 0.5v6c0 0.276-0.224 0.5-0.5 0.5z"></path>
        <path fill="var(--battery-bars, var(--green-2, green))" d="M8.5 14c-0.276 0-0.5-0.224-0.5-0.5v-6c0-0.276 0.224-0.5 0.5-0.5s0.5 0.224 0.5 0.5v6c0 0.276-0.224 0.5-0.5 0.5z"></path>
        <path fill="var(--battery-bars, var(--green-2, green))" d="M10.5 14c-0.276 0-0.5-0.224-0.5-0.5v-6c0-0.276 0.224-0.5 0.5-0.5s0.5 0.224 0.5 0.5v6c0 0.276-0.224 0.5-0.5 0.5z"></path>
    </symbol>

    <symbol id="battery-9" viewBox="0 0 20 20">
        <path fill="var(--battery, white)" d="M17.5 8h-0.5v-1.5c0-0.827-0.673-1.5-1.5-1.5h-14c-0.827 0-1.5 0.673-1.5 1.5v8c0 0.827 0.673 1.5 1.5 1.5h14c0.827 0 1.5-0.673 1.5-1.5v-1.5h0.5c0.827 0 1.5-0.673 1.5-1.5v-2c0-0.827-0.673-1.5-1.5-1.5zM16 14.5c0 0.276-0.224 0.5-0.5 0.5h-14c-0.276 0-0.5-0.224-0.5-0.5v-8c0-0.276 0.224-0.5 0.5-0.5h14c0.276 0 0.5 0.224 0.5 0.5v8zM18 11.5c0 0.276-0.224 0.5-0.5 0.5h-0.5v-3h0.5c0.276 0 0.5 0.224 0.5 0.5v2z"></path>
        <path fill="var(--battery-bars, var(--green-2, green))" d="M11.777 12.084l-2.376-1.584 2.376-1.584c0.23-0.153 0.292-0.464 0.139-0.693s-0.464-0.292-0.693-0.139l-2.723 1.815-2.723-1.815c-0.23-0.153-0.54-0.091-0.693 0.139s-0.091 0.54 0.139 0.693l2.376 1.584-2.376 1.584c-0.23 0.153-0.292 0.464-0.139 0.693 0.096 0.145 0.255 0.223 0.417 0.223 0.095 0 0.192-0.027 0.277-0.084l2.723-1.815 2.723 1.815c0.085 0.057 0.182 0.084 0.277 0.084 0.162 0 0.32-0.078 0.416-0.223 0.153-0.23 0.091-0.54-0.139-0.693z"></path>
    </symbol>

    <symbol id="trash" viewBox="0 0 20 20">
        <g fill="currentColor">
            <path d="M18.5,2h-5.75l-1.35,-1.8c-0.094,-0.126 -0.243,-0.2 -0.4,-0.2h-2c-0.157,0 -0.306,0.074 -0.4,0.2l-1.35,1.8h-5.75c-0.276,0 -0.5,0.224 -0.5,0.5c0,0.276 0.224,0.5 0.5,0.5h17c0.276,0 0.5,-0.224 0.5,-0.5c0,-0.276 -0.224,-0.5 -0.5,-0.5Zm-9.25,-1h1.5l0.75,1h-3l0.75,-1Z"></path>
            <path d="M17.582,4.007c-0.272,-0.045 -0.53,0.139 -0.575,0.411l-2.336,14.014c-0.051,0.303 -0.364,0.569 -0.671,0.569h-8c-0.307,0 -0.621,-0.266 -0.671,-0.569l-2.336,-14.014c-0.045,-0.272 -0.303,-0.456 -0.575,-0.411c-0.272,0.045 -0.456,0.303 -0.411,0.575l2.336,14.014c0.131,0.787 0.859,1.404 1.658,1.404h8c0.798,0 1.526,-0.617 1.658,-1.404l2.336,-14.014c0.045,-0.272 -0.139,-0.53 -0.411,-0.575Z"></path>
        </g>
    </symbol>
</svg>
