<svg width="320" height="100" viewBox="0 0 320 100" xmlns="http://www.w3.org/2000/svg">
  <g transform="translate(18 18)" fill="none" fill-rule="evenodd">
    <path d="M75.86 18.2a18.07 18.07 0 0 1 7.48 5.54 12.45 12.45 0 0 1 2.73 7.81v29.92a1.58 1.58 0 0 1-.44 1.17 1.54 1.54 0 0 1-1.14.44H73a1.54 1.54 0 0 1-1.14-.44 1.58 1.58 0 0 1-.44-1.17v-1.78c0-.3-.08-.48-.22-.54-.14-.06-.31 0-.49.27-2.313 2.92-6.083 4.38-11.31 4.38-4.667 0-8.367-1.117-11.1-3.35-2.733-2.233-4.113-5.523-4.14-9.87 0-4.587 1.57-8.13 4.71-10.63 3.14-2.5 7.677-3.75 13.61-3.75h8.36a.55.55 0 0 0 .62-.63v-1.52a4.85 4.85 0 0 0-1.54-3.79 6.27 6.27 0 0 0-4.36-1.39 8.37 8.37 0 0 0-3.48.67A4.27 4.27 0 0 0 60 31.37a4.47 4.47 0 0 1-.83.94 1.29 1.29 0 0 1-1 .22L46.37 31c-1.06-.12-1.53-.54-1.41-1.25a12.4 12.4 0 0 1 3.17-6.93A18.86 18.86 0 0 1 55.3 18a26.67 26.67 0 0 1 10-1.78 26.86 26.86 0 0 1 10.56 1.98zM69.3 51.43a5.64 5.64 0 0 0 2.16-4.6v-2a.55.55 0 0 0-.62-.62h-5.1a9.51 9.51 0 0 0-5.16 1.16 3.86 3.86 0 0 0-1.8 3.48A4 4 0 0 0 60.1 52a5.43 5.43 0 0 0 3.7 1.16 8.48 8.48 0 0 0 5.5-1.73zM129.35 20.61c2.9 2.947 4.35 6.947 4.35 12v28.86a1.58 1.58 0 0 1-.44 1.17 1.54 1.54 0 0 1-1.14.44h-11.45a1.54 1.54 0 0 1-1.14-.44 1.62 1.62 0 0 1-.44-1.17V35.84a7.53 7.53 0 0 0-1.63-5.05 5.43 5.43 0 0 0-4.36-1.92 5.54 5.54 0 0 0-4.4 1.92 7.4 7.4 0 0 0-1.7 5.05v25.63a1.62 1.62 0 0 1-.44 1.17 1.58 1.58 0 0 1-1.15.44H94a1.58 1.58 0 0 1-1.15-.44 1.62 1.62 0 0 1-.44-1.17v-43a1.59 1.59 0 0 1 .44-1.16A1.55 1.55 0 0 1 94 16.9h11.44a1.55 1.55 0 0 1 1.15.45c.298.311.456.73.44 1.16V21c0 .3.07.48.22.54.15.06.27 0 .39-.27 2.407-3.393 5.9-5.09 10.48-5.09a15.08 15.08 0 0 1 11.23 4.43zM140.39 62.64a1.62 1.62 0 0 1-.44-1.17V2.16a1.61 1.61 0 0 1 .44-1.16 1.58 1.58 0 0 1 1.15-.44H153a1.57 1.57 0 0 1 1.15.44c.296.312.454.73.44 1.16v26.89c0 .3.09.48.26.54.17.06.36 0 .53-.27l9.16-11.43a2.24 2.24 0 0 1 1.94-1h13c.88 0 1.32.333 1.32 1a1.54 1.54 0 0 1-.36 1l-10.9 14.27c-.24.36-.27.66-.09.89l12.85 27.16.18.71c0 .78-.47 1.16-1.41 1.16h-11.88a1.85 1.85 0 0 1-1.85-1.25l-7.75-18.4c-.06-.24-.19-.36-.4-.36a.54.54 0 0 0-.48.27l-3.88 5.72a1.11 1.11 0 0 0-.26.8v11.61a1.62 1.62 0 0 1-.44 1.17 1.57 1.57 0 0 1-1.15.44h-11.44a1.58 1.58 0 0 1-1.15-.44zM215.76 17.26c.298.311.456.73.44 1.16v8.93c.018.43-.141.85-.44 1.16a1.54 1.54 0 0 1-1.15.45H207c-.41 0-.61.21-.61.63v31.88a1.62 1.62 0 0 1-.44 1.17 1.58 1.58 0 0 1-1.15.44h-11.4a1.57 1.57 0 0 1-1.15-.44 1.62 1.62 0 0 1-.44-1.17V29.59a.55.55 0 0 0-.61-.63H187a1.55 1.55 0 0 1-1.15-.45 1.58 1.58 0 0 1-.44-1.16v-8.93a1.59 1.59 0 0 1 .44-1.16 1.55 1.55 0 0 1 1.15-.45h4.23a.54.54 0 0 0 .61-.62V14c0-3.52.62-6.27 1.85-8.27a10 10 0 0 1 5.9-4.2 35.36 35.36 0 0 1 11-.93h3.08a1.54 1.54 0 0 1 1.14.44c.296.312.454.73.44 1.16v7.02a1.59 1.59 0 0 1-.44 1.16 1.51 1.51 0 0 1-1.14.45h-2.91A5.19 5.19 0 0 0 207.4 12a4.61 4.61 0 0 0-1 3.31v.89a.54.54 0 0 0 .61.62h7.57a1.54 1.54 0 0 1 1.18.44zM248 17.35a1.55 1.55 0 0 1 1.15-.45h11.44a1.55 1.55 0 0 1 1.15.45c.298.311.456.73.44 1.16v43a1.62 1.62 0 0 1-.44 1.17 1.58 1.58 0 0 1-1.15.44h-11.46a1.58 1.58 0 0 1-1.15-.44 1.62 1.62 0 0 1-.44-1.17v-2.27c0-.3-.07-.48-.22-.54-.15-.06-.31 0-.48.27-2.473 3.22-6.113 4.83-10.92 4.83a14.37 14.37 0 0 1-10.83-4.29c-2.76-2.86-4.14-6.86-4.14-12v-29a1.59 1.59 0 0 1 .44-1.16 1.55 1.55 0 0 1 1.15-.45H234a1.55 1.55 0 0 1 1.15.45c.298.311.456.73.44 1.16v25.64a7.53 7.53 0 0 0 1.58 5 5.36 5.36 0 0 0 4.3 1.85 5.72 5.72 0 0 0 4.09-1.52 6.49 6.49 0 0 0 2-4v-27a1.59 1.59 0 0 1 .44-1.13zM269.29 62.64a1.58 1.58 0 0 1-.44-1.17V2.16c-.019-.43.14-.85.44-1.16a1.54 1.54 0 0 1 1.14-.44h11.45A1.54 1.54 0 0 1 283 1c.3.31.459.73.44 1.16v59.31a1.58 1.58 0 0 1-.44 1.17 1.54 1.54 0 0 1-1.14.44h-11.43a1.54 1.54 0 0 1-1.14-.44z" fill="#000"/>
    <circle fill="#30B5FF" fill-rule="nonzero" cx="45.22" cy="8.04" r="8.04"/>
    <path d="M18.81.55H1.24A1.23 1.23 0 0 0 0 1.79V14a1.23 1.23 0 0 0 1.24 1.23h17.55v46.24a1.62 1.62 0 0 0 .44 1.17 1.58 1.58 0 0 0 1.15.44h11.44a1.58 1.58 0 0 0 1.18-.44 1.62 1.62 0 0 0 .44-1.17V8A12.48 12.48 0 0 1 35.87.55H18.81z" fill="#000"/>
  </g>
</svg>
